<svg xmlns="http://www.w3.org/2000/svg" viewBox="0 0 1066.39 113.86">
  <defs>
    <style>
      .cls-1 {
        fill: #231f20;
      }

      .cls-2 {
        fill: #fff;
      }
    </style>
  </defs>
  <title>Asset 1</title>
  <g id="Layer_2" data-name="Layer 2">
    <g id="Layer_1-2" data-name="Layer 1">
      <g>
        <path class="cls-1" d="M0,0H30V42.56a22.18,22.18,0,0,1,9.81-8.79,32.32,32.32,0,0,1,14.53-3.3,34.66,34.66,0,0,1,14.45,2.9,24.23,24.23,0,0,1,10,8.09,25.15,25.15,0,0,1,2.29,4,26.77,26.77,0,0,1,1.42,4.16,31.65,31.65,0,0,1,.79,5c.15,1.88.23,4,.23,6.43v49.79h-30V69q0-13-11.62-13-6.28,0-9.11,3.07T30,69.1v41.78H0Z"/>
        <path class="cls-1" d="M173.07,87.32q-3.62,12.89-14.14,19.71t-27.16,6.83a55.29,55.29,0,0,1-18.54-2.9,38.82,38.82,0,0,1-13.82-8.25A35.67,35.67,0,0,1,90.7,89.6a47.26,47.26,0,0,1-3.07-17.51,48.67,48.67,0,0,1,3-17.43,36.26,36.26,0,0,1,8.64-13.35,38.74,38.74,0,0,1,13.58-8.49,50.55,50.55,0,0,1,17.83-3,52.71,52.71,0,0,1,22.85,4.87q10.28,4.86,15.31,13.35a64.69,64.69,0,0,1,3.38,6.44,31.93,31.93,0,0,1,2,6.2,53.66,53.66,0,0,1,1,7.15c.21,2.61.31,5.76.31,9.42v2.67H118a15.15,15.15,0,0,0,3.61,9.66,11.21,11.21,0,0,0,8.79,3.69q6.92,0,9.74-6ZM143.7,64.39a13.68,13.68,0,0,0-3.61-9.89,12.47,12.47,0,0,0-9.42-3.77q-5.82,0-9.11,3.53T118,64.39Z"/>
        <path class="cls-1" d="M179.9,0h30V110.88h-30Z"/>
        <path class="cls-1" d="M299.65,87.32A33.27,33.27,0,0,1,285.52,107q-10.53,6.84-27.17,6.83a55.23,55.23,0,0,1-18.53-2.9A38.73,38.73,0,0,1,226,102.71a35.69,35.69,0,0,1-8.72-13.11,47.47,47.47,0,0,1-3.06-17.51,48.67,48.67,0,0,1,3-17.43,36.26,36.26,0,0,1,8.64-13.35,38.83,38.83,0,0,1,13.58-8.49,50.55,50.55,0,0,1,17.83-3,52.67,52.67,0,0,1,22.85,4.87q10.29,4.86,15.31,13.35a64.69,64.69,0,0,1,3.38,6.44,31.93,31.93,0,0,1,2,6.2,52.07,52.07,0,0,1,1,7.15c.21,2.61.32,5.76.32,9.42v2.67H244.53a15.2,15.2,0,0,0,3.61,9.66,11.22,11.22,0,0,0,8.8,3.69q6.9,0,9.73-6ZM270.29,64.39a13.69,13.69,0,0,0-3.62-9.89,12.47,12.47,0,0,0-9.42-3.77q-5.81,0-9.11,3.53t-3.61,10.13Z"/>
        <path class="cls-1" d="M306.49,32h29.84V45.86q10-15.55,24.18-15.55a28,28,0,0,1,12.8,3.06A25.74,25.74,0,0,1,383,41.62c.93,1.36,1.72,2.59,2.35,3.69a13.79,13.79,0,0,1,1.42,3.61,26.46,26.46,0,0,1,.62,4.48c.1,1.67.16,3.77.16,6.28v51.2h-30V73.82q0-7.86-2.27-10.92c-1.52-2-4.12-3.06-7.78-3.06q-11,0-11,13.35v37.69h-30Z"/>
        <path class="cls-1" d="M417.53,0h30V43.82q5-7.55,10.34-10.6a25.7,25.7,0,0,1,13-3.07A34,34,0,0,1,485,33a30.2,30.2,0,0,1,10.72,8.09,37.22,37.22,0,0,1,6.9,12.72A53.9,53.9,0,0,1,505,70.52a62.52,62.52,0,0,1-2.35,17.82,39.76,39.76,0,0,1-6.76,13.51,29.83,29.83,0,0,1-10.59,8.56,31.72,31.72,0,0,1-13.9,3q-15.3,0-24.66-14.92v12.41H417.53Zm29.53,70.6q0,8.91,3,13.13T459.54,88q6.4,0,9.67-4t3.29-11.49q0-16.56-12.65-16.57T447.06,70.6Z"/>
        <path class="cls-1" d="M509.32,32h30v8.17c2.51-3.88,5.08-6.62,7.69-8.25a17.57,17.57,0,0,1,9.43-2.43q7.84,0,12.56,4.71t4.71,12.56a16.41,16.41,0,0,1-17.12,17.12,17.62,17.62,0,0,1-8.79-2.2,10.67,10.67,0,0,1-5.19-5.81l-.47.31a3.83,3.83,0,0,0-2,2.52,23.45,23.45,0,0,0-.48,5.65v46.49H509.32Z"/>
        <path class="cls-1" d="M625.17,103.5a16.14,16.14,0,0,1-4.63,3.84,41.2,41.2,0,0,1-7,3.22,50.22,50.22,0,0,1-8.32,2.2,49.58,49.58,0,0,1-8.64.79q-13.37,0-21-6.12T568,90.31q0-8,3.14-13t10.21-8.09a59,59,0,0,1,11.94-3.61,69.3,69.3,0,0,1,13.34-1.26H625V60.31q0-10.68-10.6-10.68-9.64,0-11.54,9.26H572.24q.63-10.51,4.32-16.09t11.86-8.56a64.21,64.21,0,0,1,11.39-2.91,81.79,81.79,0,0,1,12.35-.86q27.11,0,36.71,11a26.74,26.74,0,0,1,2.83,4,20.36,20.36,0,0,1,1.81,4.4,27.45,27.45,0,0,1,1,5.49c.15,2,.24,4.48.24,7.3v48.22H625.17ZM625.33,81H623c-4.43,0-8,.11-10.67.32a29.94,29.94,0,0,0-6.32,1,5.14,5.14,0,0,0-3,1.89,6.25,6.25,0,0,0-.71,3.22,5.62,5.62,0,0,0,2.45,4.87,11.84,11.84,0,0,0,6.88,1.73q13.75,0,13.76-11.63Z"/>
        <path class="cls-1" d="M710.37,97.06q-5.18,8-11.31,11.7a24.56,24.56,0,0,1-12.88,3.69,34.57,34.57,0,0,1-8.32-1.18,25.77,25.77,0,0,1-8.87-4.16,24.3,24.3,0,0,1-7.07-8.24Q659,93.6,659,85.28V32h30V69.1q0,7.7,2.28,10.84t7.93,3.14q11,0,11-13.51V32h30v78.84H710.37Z"/>
        <path class="cls-1" d="M710.35,32H740.2V45.86q10-15.55,24.18-15.55a28,28,0,0,1,12.8,3.06,25.71,25.71,0,0,1,9.66,8.25c.94,1.36,1.72,2.59,2.36,3.69a14.13,14.13,0,0,1,1.41,3.61,26.46,26.46,0,0,1,.62,4.48c.11,1.67.16,3.77.16,6.28v51.2h-30V73.82c0-5.24-.77-8.88-2.28-10.92s-4.11-3.06-7.78-3.06q-11,0-11,13.35v37.69h-30Z"/>
        <path class="cls-1" d="M820.76,86.22q.47,7.86,6.91,7.86a5.41,5.41,0,0,0,4-1.5,5,5,0,0,0,1.49-3.69,4.71,4.71,0,0,0-1.73-3.69,16.79,16.79,0,0,0-5.81-2.75l-3.14-.78q-4.25-1.26-7.07-2.2c-1.89-.63-3.53-1.23-4.95-1.81a31,31,0,0,1-3.77-1.8,35.54,35.54,0,0,1-3.53-2.36,18.79,18.79,0,0,1-6.28-7.3,22.29,22.29,0,0,1-2.2-10q0-12.24,8.95-19.23t24.5-7A56.3,56.3,0,0,1,846,32.59q7.77,2.59,12,7.46a16.84,16.84,0,0,1,3.62,6,37.22,37.22,0,0,1,1.25,8.49H834.74q-.94-7.08-6.44-7.07a6.09,6.09,0,0,0-4,1.25A4.12,4.12,0,0,0,822.81,52a5,5,0,0,0,2.43,4.32q2.43,1.63,9.18,3.53l6,1.57c3.87,1.15,7.18,2.2,9.9,3.14a38.34,38.34,0,0,1,6.75,3,18.7,18.7,0,0,1,4.32,3.38,16.53,16.53,0,0,1,2.75,4.16,24.28,24.28,0,0,1,2.19,10.05q0,13.83-9.73,21.13t-28.11,7.3a56.2,56.2,0,0,1-18.53-2.75,28.71,28.71,0,0,1-12.41-7.93,35.37,35.37,0,0,1-2.43-3.3,18,18,0,0,1-1.74-3.45,27.24,27.24,0,0,1-1.17-4.24,55.22,55.22,0,0,1-.79-5.66Z"/>
      </g>
      <g>
        <g>
          <path class="cls-2" d="M1064.19,110.44q-4.23.78-6.84,1.18c-1.72.26-3.21.44-4.46.55s-2.42.18-3.47.23-2.24.08-3.59.08a46.22,46.22,0,0,1-11.95-1.34,18.78,18.78,0,0,1-8.05-4.24,16.53,16.53,0,0,1-4.53-7.62,40.38,40.38,0,0,1-1.41-11.46V55.92h-8.33V32.36h8.33V13.82h30V32.36h16.49V55.92H1049.9V81.37q0,4.09,1.41,5.82c1,1.15,2.46,1.72,4.56,1.72a20.39,20.39,0,0,0,4.48-.55c1.62-.36,3.48-.86,5.56-1.49v23.25Z"/>
          <path class="cls-1" d="M1047.9,15.82V34.36h16.49V53.92H1047.9V81.37c0,3.23.61,5.55,1.87,7.09s3.39,2.45,6.1,2.45a21.75,21.75,0,0,0,4.91-.6c1-.21,2-.47,3.13-.78v18.92l-.08,0c-2.59.48-4.94.89-6.78,1.17-1.63.25-3.09.43-4.33.53s-2.36.18-3.39.24-2.18.07-3.5.07a44.48,44.48,0,0,1-11.43-1.27,16.8,16.8,0,0,1-7.21-3.77,14.81,14.81,0,0,1-4-6.73,38.78,38.78,0,0,1-1.32-10.89V53.92h-8.33V34.36h8.33V15.82h26m2-2h-30V32.36h-8.33V55.92h8.33v31.9a40.38,40.38,0,0,0,1.41,11.46,16.53,16.53,0,0,0,4.53,7.62,18.78,18.78,0,0,0,8.05,4.24,46.22,46.22,0,0,0,11.95,1.34c1.35,0,2.55,0,3.59-.08s2.21-.13,3.47-.23,2.74-.29,4.46-.55,4-.66,6.84-1.18l1.72-.32V86.87c-2.08.63-3.94,1.13-5.56,1.49a20.39,20.39,0,0,1-4.48.55c-2.1,0-3.61-.57-4.56-1.72s-1.41-3.09-1.41-5.82V55.92h16.49V32.36H1049.9V13.82Z"/>
        </g>
        <g>
          <path class="cls-2" d="M973.3,32.33h30v8.16q3.78-5.81,7.7-8.24a17.49,17.49,0,0,1,9.43-2.44q7.85,0,12.56,4.71t4.73,12.57a16.44,16.44,0,0,1-17.13,17.12,17.7,17.7,0,0,1-8.81-2.2,10.59,10.59,0,0,1-5.17-5.81l-.48.32a3.8,3.8,0,0,0-2,2.51,23.57,23.57,0,0,0-.47,5.65v46.51H973.3Z"/>
          <path class="cls-1" d="M1020.44,31.81c4.73,0,8.38,1.35,11.15,4.13s4.14,6.42,4.14,11.15a14.43,14.43,0,0,1-15.13,15.12,15.76,15.76,0,0,1-7.83-1.94,8.64,8.64,0,0,1-4.26-4.72l-.85-2.44-2.15,1.43-.38.25a5.82,5.82,0,0,0-3,3.71,25.1,25.1,0,0,0-.54,6.18v44.51H975.3V34.33h26v12.9l3.68-5.65c2.35-3.61,4.73-6.18,7.08-7.63a15.61,15.61,0,0,1,8.37-2.14m0-2a17.49,17.49,0,0,0-9.43,2.44q-3.93,2.43-7.7,8.24V32.33h-30v78.86h30.33V64.68a23.57,23.57,0,0,1,.47-5.65,3.8,3.8,0,0,1,2-2.51l.48-.32a10.59,10.59,0,0,0,5.17,5.81,17.7,17.7,0,0,0,8.81,2.2,16.44,16.44,0,0,0,17.13-17.12q0-7.86-4.73-12.57t-12.56-4.71Z"/>
        </g>
        <g>
          <path class="cls-2" d="M945.69,103.8a15.92,15.92,0,0,1-4.64,3.85,40.84,40.84,0,0,1-7,3.22,49.82,49.82,0,0,1-8.33,2.2,48.44,48.44,0,0,1-8.63.79q-13.36,0-21-6.13t-7.63-17.12c0-5.34,1.06-9.66,3.15-13s5.5-6,10.22-8.1a59.44,59.44,0,0,1,11.94-3.61,70.11,70.11,0,0,1,13.34-1.26h18.39V60.6q0-10.68-10.6-10.68-9.66,0-11.55,9.27H892.75q.62-10.53,4.31-16.11t11.86-8.56a63.52,63.52,0,0,1,11.39-2.9,80.57,80.57,0,0,1,12.36-.87q27.11,0,36.72,11a24.91,24.91,0,0,1,2.83,4A20.49,20.49,0,0,1,974,50.15a27.68,27.68,0,0,1,1,5.5q.22,3.06.23,7.31v48.23H945.69Zm.15-22.46h-2.37c-4.42,0-8,.11-10.68.31a30.39,30.39,0,0,0-6.32,1,5.14,5.14,0,0,0-3,1.89,6.27,6.27,0,0,0-.71,3.22,5.59,5.59,0,0,0,2.45,4.87,11.84,11.84,0,0,0,6.88,1.73q13.75,0,13.76-11.63Z"/>
          <path class="cls-1" d="M932.67,32.75c17.38,0,29.23,3.47,35.2,10.3a23.54,23.54,0,0,1,2.61,3.68,19.47,19.47,0,0,1,1.63,4,25.27,25.27,0,0,1,.87,5.1c.16,2,.23,4.38.23,7.15v46.23H947.69V97.94l-3.59,4.64a14.06,14.06,0,0,1-4.06,3.35,40,40,0,0,1-6.66,3.06,49.47,49.47,0,0,1-8,2.11,47.15,47.15,0,0,1-8.28.76c-8.39,0-15-1.92-19.73-5.69s-6.88-8.8-6.88-15.56c0-4.93,1-8.93,2.84-11.89s5-5.41,9.31-7.33a57.15,57.15,0,0,1,11.54-3.48,68,68,0,0,1,13-1.23h20.39V60.6c0-8.18-4.47-12.68-12.6-12.68-6.81,0-11.31,3.19-13.11,9.27H894.9c.54-5.61,1.82-10,3.83-13,2.21-3.34,5.87-6,10.85-7.78a63.31,63.31,0,0,1,11-2.82,79.3,79.3,0,0,1,12-.84m-.59,63.63c13,0,15.76-7.41,15.76-13.63V79.34h-4.37c-4.41,0-8.06.1-10.84.32a31.89,31.89,0,0,0-6.75,1.1,6.89,6.89,0,0,0-4.13,2.77,8.05,8.05,0,0,0-1,4.25,7.63,7.63,0,0,0,3.3,6.51,13.83,13.83,0,0,0,8,2.09m.59-65.63a80.57,80.57,0,0,0-12.36.87,63.52,63.52,0,0,0-11.39,2.9q-8.16,3-11.86,8.56t-4.31,16.11h30.63q1.89-9.27,11.55-9.27,10.61,0,10.6,10.68v4.08H927.14a70.11,70.11,0,0,0-13.34,1.26,59.44,59.44,0,0,0-11.94,3.61q-7.08,3.15-10.22,8.1c-2.09,3.3-3.15,7.62-3.15,13q0,11,7.63,17.12t21,6.13a48.44,48.44,0,0,0,8.63-.79,49.82,49.82,0,0,0,8.33-2.2,40.84,40.84,0,0,0,7-3.22,15.92,15.92,0,0,0,4.64-3.85v7.39h29.52V63q0-4.24-.23-7.31a27.68,27.68,0,0,0-1-5.5,20.49,20.49,0,0,0-1.81-4.39,24.91,24.91,0,0,0-2.83-4q-9.61-11-36.72-11Zm-.59,63.63a11.84,11.84,0,0,1-6.88-1.73,5.59,5.59,0,0,1-2.45-4.87,6.27,6.27,0,0,1,.71-3.22,5.14,5.14,0,0,1,3-1.89,30.39,30.39,0,0,1,6.32-1c2.69-.2,6.26-.31,10.68-.31h2.37v1.41q0,11.64-13.76,11.63Z"/>
        </g>
      </g>
    </g>
  </g>
</svg>
